<svg xmlns="http://www.w3.org/2000/svg" viewBox="0 0 900 1200" width="900" height="1200" preserveAspectRatio="xMidYMid slice" role="img">
  <defs>
    <linearGradient id="bga3gvnft" x1="0" y1="0" x2="0.9" y2="1">
      <stop offset="0" stop-color="#150F1B" />
      <stop offset="0.52" stop-color="#3A2246" />
      <stop offset="1" stop-color="#5E3A63" />
    </linearGradient>
    <radialGradient id="glowa3gvnft" cx="0.72" cy="0.22" r="0.78">
      <stop offset="0" stop-color="#E3C77C" stop-opacity="0.46" />
      <stop offset="0.45" stop-color="#E3C77C" stop-opacity="0.14" />
      <stop offset="1" stop-color="#E3C77C" stop-opacity="0" />
    </radialGradient>
    <radialGradient id="deepa3gvnft" cx="0.18" cy="0.94" r="0.72">
      <stop offset="0" stop-color="#100A14" stop-opacity="0.78" />
      <stop offset="1" stop-color="#100A14" stop-opacity="0" />
    </radialGradient>
    <linearGradient id="stranda3gvnft" x1="0" y1="0" x2="1" y2="1">
      <stop offset="0" stop-color="#E3C77C" stop-opacity="0.55" />
      <stop offset="0.5" stop-color="#FFFFFF" stop-opacity="0.2" />
      <stop offset="1" stop-color="#E3C77C" stop-opacity="0.32" />
    </linearGradient>
    <radialGradient id="viga3gvnft" cx="0.5" cy="0.46" r="0.78">
      <stop offset="0.5" stop-color="#000000" stop-opacity="0" />
      <stop offset="1" stop-color="#000000" stop-opacity="0.45" />
    </radialGradient>
    <filter id="softa3gvnft" x="-20%" y="-20%" width="140%" height="140%">
      <feGaussianBlur stdDeviation="12" />
    </filter>
  </defs>

  <rect width="900" height="1200" fill="url(#bga3gvnft)" />
  <rect width="900" height="1200" fill="url(#glowa3gvnft)" />

  <g fill="none" stroke="url(#stranda3gvnft)" stroke-linecap="round" filter="url(#softa3gvnft)">
    <path d="M505.9 -60.0 C447.6 408.0 602.9 816.0 457.3 1176.0 486.5 1272.0" stroke-width="14.9" opacity="0.18" /><path d="M796.5 -60.0 C826.8 408.0 746.1 816.0 821.8 1176.0 806.6 1272.0" stroke-width="49.4" opacity="0.32" /><path d="M616.0 -60.0 C722.9 408.0 437.8 816.0 705.1 1176.0 651.6 1272.0" stroke-width="34.8" opacity="0.18" /><path d="M816.9 -60.0 C942.4 408.0 607.9 816.0 921.4 1176.0 858.7 1272.0" stroke-width="45.0" opacity="0.27" /><path d="M270.3 -60.0 C299.0 408.0 222.5 816.0 294.2 1176.0 279.9 1272.0" stroke-width="38.0" opacity="0.56" /><path d="M187.4 -60.0 C123.1 408.0 294.6 816.0 133.9 1176.0 166.0 1272.0" stroke-width="59.7" opacity="0.41" /><path d="M219.8 -60.0 C160.9 408.0 317.9 816.0 170.7 1176.0 200.2 1272.0" stroke-width="50.4" opacity="0.52" />
  </g>

  <g fill="none" stroke="#E3C77C" stroke-opacity="0.34" stroke-width="1.4">
    <circle cx="450.0" cy="480.0" r="178.6" />
    <circle cx="450.0" cy="480.0" r="288.0" stroke-opacity="0.2" />
    <path d="M69.8 480.0 A380.2 380.2 0 0 1 830.2 480.0" stroke-opacity="0.16" />
  </g>

  <rect width="900" height="1200" fill="url(#deepa3gvnft)" />
  <g><circle cx="417.2" cy="105.7" r="2.2" fill="#E3C77C" opacity="0.53" /><circle cx="399.4" cy="992.8" r="3.7" fill="#E3C77C" opacity="0.52" /><circle cx="341.8" cy="488.8" r="4.0" fill="#E3C77C" opacity="0.39" /><circle cx="230.1" cy="388.8" r="3.3" fill="#E3C77C" opacity="0.30" /><circle cx="609.6" cy="411.6" r="4.2" fill="#E3C77C" opacity="0.41" /><circle cx="293.8" cy="353.9" r="3.4" fill="#E3C77C" opacity="0.41" /><circle cx="623.6" cy="612.9" r="5.0" fill="#E3C77C" opacity="0.72" /><circle cx="628.9" cy="621.1" r="2.6" fill="#E3C77C" opacity="0.26" /><circle cx="255.6" cy="689.1" r="2.2" fill="#E3C77C" opacity="0.41" /><circle cx="147.6" cy="715.1" r="1.8" fill="#E3C77C" opacity="0.63" /><circle cx="517.0" cy="1033.8" r="5.0" fill="#E3C77C" opacity="0.58" /><circle cx="385.4" cy="376.8" r="3.2" fill="#E3C77C" opacity="0.44" /><circle cx="525.6" cy="456.8" r="4.5" fill="#E3C77C" opacity="0.34" /><circle cx="251.2" cy="425.7" r="1.6" fill="#E3C77C" opacity="0.62" /><circle cx="695.3" cy="524.6" r="1.8" fill="#E3C77C" opacity="0.56" /><circle cx="523.9" cy="532.6" r="2.2" fill="#E3C77C" opacity="0.48" /><circle cx="318.9" cy="659.6" r="2.1" fill="#E3C77C" opacity="0.41" /><circle cx="459.6" cy="842.9" r="3.8" fill="#E3C77C" opacity="0.51" /><circle cx="579.9" cy="613.5" r="3.5" fill="#E3C77C" opacity="0.68" /><circle cx="370.5" cy="467.6" r="3.9" fill="#E3C77C" opacity="0.32" /><circle cx="499.2" cy="944.5" r="4.0" fill="#E3C77C" opacity="0.66" /><circle cx="368.3" cy="479.3" r="3.7" fill="#E3C77C" opacity="0.43" /><circle cx="508.1" cy="220.7" r="2.8" fill="#E3C77C" opacity="0.45" /><circle cx="757.1" cy="138.4" r="3.6" fill="#E3C77C" opacity="0.69" /><circle cx="605.6" cy="737.7" r="3.7" fill="#E3C77C" opacity="0.58" /><circle cx="467.8" cy="147.9" r="3.1" fill="#E3C77C" opacity="0.54" /></g>
  <rect width="900" height="1200" fill="url(#viga3gvnft)" />

  <rect x="30" y="30" width="840" height="1140" fill="none" stroke="#E3C77C" stroke-opacity="0.38" stroke-width="1.5" />
</svg>
