<svg xmlns="http://www.w3.org/2000/svg" viewBox="0 0 900 1200" width="900" height="1200" preserveAspectRatio="xMidYMid slice" role="img">
  <defs>
    <linearGradient id="bga3ux94v" x1="0" y1="0" x2="0.9" y2="1">
      <stop offset="0" stop-color="#1A1210" />
      <stop offset="0.52" stop-color="#4C3122" />
      <stop offset="1" stop-color="#806043" />
    </linearGradient>
    <radialGradient id="glowa3ux94v" cx="0.72" cy="0.22" r="0.78">
      <stop offset="0" stop-color="#EDD6A0" stop-opacity="0.46" />
      <stop offset="0.45" stop-color="#EDD6A0" stop-opacity="0.14" />
      <stop offset="1" stop-color="#EDD6A0" stop-opacity="0" />
    </radialGradient>
    <radialGradient id="deepa3ux94v" cx="0.18" cy="0.94" r="0.72">
      <stop offset="0" stop-color="#120C0A" stop-opacity="0.78" />
      <stop offset="1" stop-color="#120C0A" stop-opacity="0" />
    </radialGradient>
    <linearGradient id="stranda3ux94v" x1="0" y1="0" x2="1" y2="1">
      <stop offset="0" stop-color="#EDD6A0" stop-opacity="0.55" />
      <stop offset="0.5" stop-color="#FFFFFF" stop-opacity="0.2" />
      <stop offset="1" stop-color="#EDD6A0" stop-opacity="0.32" />
    </linearGradient>
    <radialGradient id="viga3ux94v" cx="0.5" cy="0.46" r="0.78">
      <stop offset="0.5" stop-color="#000000" stop-opacity="0" />
      <stop offset="1" stop-color="#000000" stop-opacity="0.45" />
    </radialGradient>
    <filter id="softa3ux94v" x="-20%" y="-20%" width="140%" height="140%">
      <feGaussianBlur stdDeviation="12" />
    </filter>
  </defs>

  <rect width="900" height="1200" fill="url(#bga3ux94v)" />
  <rect width="900" height="1200" fill="url(#glowa3ux94v)" />

  <g fill="none" stroke="url(#stranda3ux94v)" stroke-linecap="round" filter="url(#softa3ux94v)">
    <path d="M218.1 -60.0 C223.7 408.0 208.6 816.0 222.8 1176.0 220.0 1272.0" stroke-width="46.0" opacity="0.39" /><path d="M346.5 -60.0 C212.6 408.0 569.6 816.0 234.9 1176.0 301.9 1272.0" stroke-width="57.5" opacity="0.32" /><path d="M825.6 -60.0 C859.6 408.0 768.9 816.0 854.0 1176.0 836.9 1272.0" stroke-width="41.2" opacity="0.39" /><path d="M267.8 -60.0 C197.5 408.0 385.1 816.0 209.2 1176.0 244.4 1272.0" stroke-width="35.2" opacity="0.55" /><path d="M223.8 -60.0 C138.7 408.0 365.6 816.0 152.8 1176.0 195.4 1272.0" stroke-width="55.7" opacity="0.22" /><path d="M800.5 -60.0 C695.0 408.0 976.3 816.0 712.6 1176.0 765.3 1272.0" stroke-width="34.0" opacity="0.33" /><path d="M639.1 -60.0 C756.3 408.0 443.7 816.0 736.8 1176.0 678.1 1272.0" stroke-width="23.3" opacity="0.39" />
  </g>

  <g fill="none" stroke="#EDD6A0" stroke-opacity="0.34" stroke-width="1.4">
    <circle cx="450.0" cy="480.0" r="178.6" />
    <circle cx="450.0" cy="480.0" r="288.0" stroke-opacity="0.2" />
    <path d="M69.8 480.0 A380.2 380.2 0 0 1 830.2 480.0" stroke-opacity="0.16" />
  </g>

  <rect width="900" height="1200" fill="url(#deepa3ux94v)" />
  <g><circle cx="688.4" cy="112.0" r="3.5" fill="#EDD6A0" opacity="0.49" /><circle cx="484.1" cy="292.0" r="2.1" fill="#EDD6A0" opacity="0.42" /><circle cx="319.9" cy="493.3" r="1.7" fill="#EDD6A0" opacity="0.55" /><circle cx="636.4" cy="143.4" r="2.7" fill="#EDD6A0" opacity="0.62" /><circle cx="585.1" cy="635.3" r="3.3" fill="#EDD6A0" opacity="0.70" /><circle cx="255.9" cy="696.2" r="4.6" fill="#EDD6A0" opacity="0.28" /><circle cx="452.8" cy="480.7" r="3.6" fill="#EDD6A0" opacity="0.53" /><circle cx="753.3" cy="1035.1" r="1.9" fill="#EDD6A0" opacity="0.27" /><circle cx="151.0" cy="1056.2" r="4.2" fill="#EDD6A0" opacity="0.42" /><circle cx="465.0" cy="336.9" r="4.2" fill="#EDD6A0" opacity="0.32" /><circle cx="587.1" cy="315.4" r="4.8" fill="#EDD6A0" opacity="0.59" /><circle cx="293.4" cy="717.8" r="3.6" fill="#EDD6A0" opacity="0.65" /><circle cx="279.9" cy="482.2" r="4.5" fill="#EDD6A0" opacity="0.64" /><circle cx="775.8" cy="164.0" r="3.4" fill="#EDD6A0" opacity="0.68" /><circle cx="116.2" cy="769.5" r="2.1" fill="#EDD6A0" opacity="0.74" /><circle cx="313.1" cy="129.0" r="4.9" fill="#EDD6A0" opacity="0.28" /><circle cx="585.6" cy="301.9" r="4.1" fill="#EDD6A0" opacity="0.27" /><circle cx="668.0" cy="233.3" r="4.9" fill="#EDD6A0" opacity="0.46" /><circle cx="119.3" cy="650.4" r="3.3" fill="#EDD6A0" opacity="0.28" /><circle cx="178.9" cy="317.8" r="4.0" fill="#EDD6A0" opacity="0.40" /><circle cx="508.6" cy="867.1" r="4.7" fill="#EDD6A0" opacity="0.74" /><circle cx="450.8" cy="440.4" r="2.4" fill="#EDD6A0" opacity="0.71" /><circle cx="287.2" cy="380.7" r="2.4" fill="#EDD6A0" opacity="0.75" /><circle cx="254.7" cy="243.1" r="2.9" fill="#EDD6A0" opacity="0.52" /><circle cx="277.7" cy="621.0" r="2.6" fill="#EDD6A0" opacity="0.31" /><circle cx="187.1" cy="660.2" r="2.2" fill="#EDD6A0" opacity="0.47" /></g>
  <rect width="900" height="1200" fill="url(#viga3ux94v)" />

  <rect x="30" y="30" width="840" height="1140" fill="none" stroke="#EDD6A0" stroke-opacity="0.38" stroke-width="1.5" />
</svg>
