<svg xmlns="http://www.w3.org/2000/svg" viewBox="0 0 900 1200" width="900" height="1200" preserveAspectRatio="xMidYMid slice" role="img">
  <defs>
    <linearGradient id="bga53jksx" x1="0" y1="0" x2="0.9" y2="1">
      <stop offset="0" stop-color="#150F1B" />
      <stop offset="0.52" stop-color="#3A2246" />
      <stop offset="1" stop-color="#5E3A63" />
    </linearGradient>
    <radialGradient id="glowa53jksx" cx="0.72" cy="0.22" r="0.78">
      <stop offset="0" stop-color="#E3C77C" stop-opacity="0.46" />
      <stop offset="0.45" stop-color="#E3C77C" stop-opacity="0.14" />
      <stop offset="1" stop-color="#E3C77C" stop-opacity="0" />
    </radialGradient>
    <radialGradient id="deepa53jksx" cx="0.18" cy="0.94" r="0.72">
      <stop offset="0" stop-color="#100A14" stop-opacity="0.78" />
      <stop offset="1" stop-color="#100A14" stop-opacity="0" />
    </radialGradient>
    <linearGradient id="stranda53jksx" x1="0" y1="0" x2="1" y2="1">
      <stop offset="0" stop-color="#E3C77C" stop-opacity="0.55" />
      <stop offset="0.5" stop-color="#FFFFFF" stop-opacity="0.2" />
      <stop offset="1" stop-color="#E3C77C" stop-opacity="0.32" />
    </linearGradient>
    <radialGradient id="viga53jksx" cx="0.5" cy="0.46" r="0.78">
      <stop offset="0.5" stop-color="#000000" stop-opacity="0" />
      <stop offset="1" stop-color="#000000" stop-opacity="0.45" />
    </radialGradient>
    <filter id="softa53jksx" x="-20%" y="-20%" width="140%" height="140%">
      <feGaussianBlur stdDeviation="12" />
    </filter>
  </defs>

  <rect width="900" height="1200" fill="url(#bga53jksx)" />
  <rect width="900" height="1200" fill="url(#glowa53jksx)" />

  <g fill="none" stroke="url(#stranda53jksx)" stroke-linecap="round" filter="url(#softa53jksx)">
    <path d="M629.8 -60.0 C513.0 408.0 824.4 816.0 532.4 1176.0 590.8 1272.0" stroke-width="20.9" opacity="0.50" /><path d="M650.0 -60.0 C606.7 408.0 722.2 816.0 613.9 1176.0 635.5 1272.0" stroke-width="42.4" opacity="0.33" /><path d="M686.5 -60.0 C564.3 408.0 890.2 816.0 584.7 1176.0 645.8 1272.0" stroke-width="43.0" opacity="0.54" /><path d="M777.5 -60.0 C707.1 408.0 894.9 816.0 718.9 1176.0 754.1 1272.0" stroke-width="33.1" opacity="0.48" /><path d="M266.5 -60.0 C163.3 408.0 438.7 816.0 180.5 1176.0 232.1 1272.0" stroke-width="47.3" opacity="0.47" /><path d="M479.6 -60.0 C388.0 408.0 632.2 816.0 403.3 1176.0 449.1 1272.0" stroke-width="37.1" opacity="0.28" /><path d="M805.5 -60.0 C929.9 408.0 598.1 816.0 909.1 1176.0 846.9 1272.0" stroke-width="36.4" opacity="0.38" />
  </g>

  <g fill="none" stroke="#E3C77C" stroke-opacity="0.34" stroke-width="1.4">
    <circle cx="450.0" cy="480.0" r="178.6" />
    <circle cx="450.0" cy="480.0" r="288.0" stroke-opacity="0.2" />
    <path d="M69.8 480.0 A380.2 380.2 0 0 1 830.2 480.0" stroke-opacity="0.16" />
  </g>

  <rect width="900" height="1200" fill="url(#deepa53jksx)" />
  <g><circle cx="365.2" cy="407.8" r="4.5" fill="#E3C77C" opacity="0.69" /><circle cx="382.3" cy="1044.9" r="2.4" fill="#E3C77C" opacity="0.33" /><circle cx="393.8" cy="671.9" r="4.8" fill="#E3C77C" opacity="0.41" /><circle cx="495.5" cy="312.9" r="4.7" fill="#E3C77C" opacity="0.32" /><circle cx="424.8" cy="271.4" r="3.1" fill="#E3C77C" opacity="0.29" /><circle cx="387.5" cy="236.4" r="4.6" fill="#E3C77C" opacity="0.65" /><circle cx="188.2" cy="610.1" r="3.6" fill="#E3C77C" opacity="0.62" /><circle cx="671.8" cy="427.6" r="2.6" fill="#E3C77C" opacity="0.68" /><circle cx="570.8" cy="854.4" r="3.0" fill="#E3C77C" opacity="0.26" /><circle cx="228.0" cy="1058.6" r="4.5" fill="#E3C77C" opacity="0.71" /><circle cx="298.4" cy="536.8" r="4.7" fill="#E3C77C" opacity="0.55" /><circle cx="129.7" cy="378.9" r="4.4" fill="#E3C77C" opacity="0.41" /><circle cx="159.9" cy="513.1" r="4.3" fill="#E3C77C" opacity="0.31" /><circle cx="402.4" cy="365.0" r="4.9" fill="#E3C77C" opacity="0.73" /><circle cx="354.8" cy="920.8" r="3.6" fill="#E3C77C" opacity="0.30" /><circle cx="262.8" cy="794.9" r="2.9" fill="#E3C77C" opacity="0.71" /><circle cx="391.8" cy="377.4" r="1.6" fill="#E3C77C" opacity="0.62" /><circle cx="269.4" cy="311.1" r="4.5" fill="#E3C77C" opacity="0.66" /><circle cx="591.9" cy="806.1" r="3.2" fill="#E3C77C" opacity="0.67" /><circle cx="254.2" cy="612.4" r="3.3" fill="#E3C77C" opacity="0.56" /><circle cx="209.5" cy="908.9" r="2.7" fill="#E3C77C" opacity="0.64" /><circle cx="340.8" cy="348.3" r="3.9" fill="#E3C77C" opacity="0.60" /><circle cx="517.7" cy="903.8" r="2.7" fill="#E3C77C" opacity="0.51" /><circle cx="707.4" cy="1075.3" r="3.1" fill="#E3C77C" opacity="0.49" /><circle cx="566.9" cy="247.1" r="3.8" fill="#E3C77C" opacity="0.42" /><circle cx="200.9" cy="627.6" r="1.6" fill="#E3C77C" opacity="0.58" /></g>
  <rect width="900" height="1200" fill="url(#viga53jksx)" />

  <rect x="30" y="30" width="840" height="1140" fill="none" stroke="#E3C77C" stroke-opacity="0.38" stroke-width="1.5" />
</svg>
