<svg xmlns="http://www.w3.org/2000/svg" viewBox="0 0 900 1200" width="900" height="1200" preserveAspectRatio="xMidYMid slice" role="img">
  <defs>
    <linearGradient id="bgazgk1yb" x1="0" y1="0" x2="0.9" y2="1">
      <stop offset="0" stop-color="#0F1114" />
      <stop offset="0.52" stop-color="#2A2A38" />
      <stop offset="1" stop-color="#4B4459" />
    </linearGradient>
    <radialGradient id="glowazgk1yb" cx="0.72" cy="0.22" r="0.78">
      <stop offset="0" stop-color="#D5B77F" stop-opacity="0.46" />
      <stop offset="0.45" stop-color="#D5B77F" stop-opacity="0.14" />
      <stop offset="1" stop-color="#D5B77F" stop-opacity="0" />
    </radialGradient>
    <radialGradient id="deepazgk1yb" cx="0.18" cy="0.94" r="0.72">
      <stop offset="0" stop-color="#0A0C0F" stop-opacity="0.78" />
      <stop offset="1" stop-color="#0A0C0F" stop-opacity="0" />
    </radialGradient>
    <linearGradient id="strandazgk1yb" x1="0" y1="0" x2="1" y2="1">
      <stop offset="0" stop-color="#D5B77F" stop-opacity="0.55" />
      <stop offset="0.5" stop-color="#FFFFFF" stop-opacity="0.2" />
      <stop offset="1" stop-color="#D5B77F" stop-opacity="0.32" />
    </linearGradient>
    <radialGradient id="vigazgk1yb" cx="0.5" cy="0.46" r="0.78">
      <stop offset="0.5" stop-color="#000000" stop-opacity="0" />
      <stop offset="1" stop-color="#000000" stop-opacity="0.45" />
    </radialGradient>
    <filter id="softazgk1yb" x="-20%" y="-20%" width="140%" height="140%">
      <feGaussianBlur stdDeviation="12" />
    </filter>
  </defs>

  <rect width="900" height="1200" fill="url(#bgazgk1yb)" />
  <rect width="900" height="1200" fill="url(#glowazgk1yb)" />

  <g fill="none" stroke="url(#strandazgk1yb)" stroke-linecap="round" filter="url(#softazgk1yb)">
    <path d="M615.7 -60.0 C680.0 408.0 508.5 816.0 669.3 1176.0 637.2 1272.0" stroke-width="34.2" opacity="0.19" /><path d="M277.7 -60.0 C259.2 408.0 308.5 816.0 262.3 1176.0 271.6 1272.0" stroke-width="19.5" opacity="0.52" /><path d="M264.9 -60.0 C386.2 408.0 62.7 816.0 366.0 1176.0 305.3 1272.0" stroke-width="45.9" opacity="0.26" /><path d="M818.2 -60.0 C830.2 408.0 798.3 816.0 828.2 1176.0 822.2 1272.0" stroke-width="55.3" opacity="0.32" /><path d="M670.2 -60.0 C709.2 408.0 605.1 816.0 702.7 1176.0 683.2 1272.0" stroke-width="56.0" opacity="0.22" /><path d="M410.3 -60.0 C536.5 408.0 200.0 816.0 515.5 1176.0 452.4 1272.0" stroke-width="23.8" opacity="0.52" /><path d="M453.8 -60.0 C508.7 408.0 362.2 816.0 499.6 1176.0 472.1 1272.0" stroke-width="47.9" opacity="0.26" />
  </g>

  <g fill="none" stroke="#D5B77F" stroke-opacity="0.34" stroke-width="1.4">
    <circle cx="450.0" cy="480.0" r="178.6" />
    <circle cx="450.0" cy="480.0" r="288.0" stroke-opacity="0.2" />
    <path d="M69.8 480.0 A380.2 380.2 0 0 1 830.2 480.0" stroke-opacity="0.16" />
  </g>

  <rect width="900" height="1200" fill="url(#deepazgk1yb)" />
  <g><circle cx="436.1" cy="103.7" r="4.5" fill="#D5B77F" opacity="0.36" /><circle cx="173.9" cy="209.2" r="4.2" fill="#D5B77F" opacity="0.27" /><circle cx="341.8" cy="818.1" r="2.6" fill="#D5B77F" opacity="0.28" /><circle cx="356.2" cy="892.2" r="4.4" fill="#D5B77F" opacity="0.34" /><circle cx="556.9" cy="356.8" r="2.4" fill="#D5B77F" opacity="0.33" /><circle cx="371.9" cy="325.9" r="4.5" fill="#D5B77F" opacity="0.39" /><circle cx="249.7" cy="427.0" r="2.9" fill="#D5B77F" opacity="0.33" /><circle cx="353.0" cy="240.0" r="2.9" fill="#D5B77F" opacity="0.35" /><circle cx="114.2" cy="307.6" r="4.7" fill="#D5B77F" opacity="0.63" /><circle cx="464.1" cy="268.7" r="1.8" fill="#D5B77F" opacity="0.63" /><circle cx="521.1" cy="177.1" r="3.6" fill="#D5B77F" opacity="0.42" /><circle cx="693.7" cy="404.6" r="4.5" fill="#D5B77F" opacity="0.35" /><circle cx="200.1" cy="1088.2" r="2.7" fill="#D5B77F" opacity="0.52" /><circle cx="150.5" cy="676.7" r="3.6" fill="#D5B77F" opacity="0.68" /><circle cx="447.6" cy="895.9" r="4.3" fill="#D5B77F" opacity="0.26" /><circle cx="403.1" cy="376.2" r="2.5" fill="#D5B77F" opacity="0.46" /><circle cx="667.1" cy="270.7" r="3.0" fill="#D5B77F" opacity="0.67" /><circle cx="117.6" cy="199.8" r="5.0" fill="#D5B77F" opacity="0.34" /><circle cx="789.3" cy="937.6" r="3.6" fill="#D5B77F" opacity="0.32" /><circle cx="375.7" cy="678.9" r="3.7" fill="#D5B77F" opacity="0.33" /><circle cx="191.7" cy="831.7" r="3.9" fill="#D5B77F" opacity="0.37" /><circle cx="470.0" cy="451.1" r="3.6" fill="#D5B77F" opacity="0.66" /><circle cx="692.6" cy="769.5" r="2.4" fill="#D5B77F" opacity="0.68" /><circle cx="292.2" cy="591.5" r="3.0" fill="#D5B77F" opacity="0.50" /><circle cx="759.8" cy="99.6" r="3.7" fill="#D5B77F" opacity="0.41" /><circle cx="214.8" cy="687.8" r="1.9" fill="#D5B77F" opacity="0.74" /></g>
  <rect width="900" height="1200" fill="url(#vigazgk1yb)" />

  <rect x="30" y="30" width="840" height="1140" fill="none" stroke="#D5B77F" stroke-opacity="0.38" stroke-width="1.5" />
</svg>
