<svg xmlns="http://www.w3.org/2000/svg" viewBox="0 0 900 1200" width="900" height="1200" preserveAspectRatio="xMidYMid slice" role="img">
  <defs>
    <linearGradient id="bga2jnevq" x1="0" y1="0" x2="0.9" y2="1">
      <stop offset="0" stop-color="#191013" />
      <stop offset="0.52" stop-color="#472A2A" />
      <stop offset="1" stop-color="#7B4F45" />
    </linearGradient>
    <radialGradient id="glowa2jnevq" cx="0.72" cy="0.22" r="0.78">
      <stop offset="0" stop-color="#D8AE6B" stop-opacity="0.46" />
      <stop offset="0.45" stop-color="#D8AE6B" stop-opacity="0.14" />
      <stop offset="1" stop-color="#D8AE6B" stop-opacity="0" />
    </radialGradient>
    <radialGradient id="deepa2jnevq" cx="0.18" cy="0.94" r="0.72">
      <stop offset="0" stop-color="#110A0C" stop-opacity="0.78" />
      <stop offset="1" stop-color="#110A0C" stop-opacity="0" />
    </radialGradient>
    <linearGradient id="stranda2jnevq" x1="0" y1="0" x2="1" y2="1">
      <stop offset="0" stop-color="#D8AE6B" stop-opacity="0.55" />
      <stop offset="0.5" stop-color="#FFFFFF" stop-opacity="0.2" />
      <stop offset="1" stop-color="#D8AE6B" stop-opacity="0.32" />
    </linearGradient>
    <radialGradient id="viga2jnevq" cx="0.5" cy="0.46" r="0.78">
      <stop offset="0.5" stop-color="#000000" stop-opacity="0" />
      <stop offset="1" stop-color="#000000" stop-opacity="0.45" />
    </radialGradient>
    <filter id="softa2jnevq" x="-20%" y="-20%" width="140%" height="140%">
      <feGaussianBlur stdDeviation="12" />
    </filter>
  </defs>

  <rect width="900" height="1200" fill="url(#bga2jnevq)" />
  <rect width="900" height="1200" fill="url(#glowa2jnevq)" />

  <g fill="none" stroke="url(#stranda2jnevq)" stroke-linecap="round" filter="url(#softa2jnevq)">
    <path d="M655.0 -60.0 C534.8 408.0 855.4 816.0 554.8 1176.0 614.9 1272.0" stroke-width="32.1" opacity="0.41" /><path d="M310.5 -60.0 C288.4 408.0 347.3 816.0 292.1 1176.0 303.1 1272.0" stroke-width="28.5" opacity="0.51" /><path d="M769.6 -60.0 C699.5 408.0 886.4 816.0 711.2 1176.0 746.2 1272.0" stroke-width="23.6" opacity="0.35" /><path d="M676.5 -60.0 C769.4 408.0 521.6 816.0 754.0 1176.0 707.5 1272.0" stroke-width="46.3" opacity="0.35" /><path d="M322.2 -60.0 C187.5 408.0 546.7 816.0 209.9 1176.0 277.3 1272.0" stroke-width="55.4" opacity="0.28" /><path d="M804.6 -60.0 C760.0 408.0 878.9 816.0 767.5 1176.0 789.8 1272.0" stroke-width="47.6" opacity="0.49" /><path d="M431.8 -60.0 C516.8 408.0 290.2 816.0 502.6 1176.0 460.2 1272.0" stroke-width="56.9" opacity="0.37" />
  </g>

  <g fill="none" stroke="#D8AE6B" stroke-opacity="0.34" stroke-width="1.4">
    <circle cx="450.0" cy="480.0" r="178.6" />
    <circle cx="450.0" cy="480.0" r="288.0" stroke-opacity="0.2" />
    <path d="M69.8 480.0 A380.2 380.2 0 0 1 830.2 480.0" stroke-opacity="0.16" />
  </g>

  <rect width="900" height="1200" fill="url(#deepa2jnevq)" />
  <g><circle cx="706.7" cy="145.4" r="2.0" fill="#D8AE6B" opacity="0.44" /><circle cx="340.9" cy="354.4" r="3.6" fill="#D8AE6B" opacity="0.35" /><circle cx="285.5" cy="330.3" r="2.2" fill="#D8AE6B" opacity="0.28" /><circle cx="217.0" cy="1008.8" r="4.5" fill="#D8AE6B" opacity="0.31" /><circle cx="788.5" cy="114.5" r="2.3" fill="#D8AE6B" opacity="0.59" /><circle cx="394.6" cy="306.3" r="2.3" fill="#D8AE6B" opacity="0.32" /><circle cx="272.3" cy="585.6" r="3.7" fill="#D8AE6B" opacity="0.50" /><circle cx="512.4" cy="877.6" r="3.3" fill="#D8AE6B" opacity="0.72" /><circle cx="159.8" cy="895.4" r="1.6" fill="#D8AE6B" opacity="0.27" /><circle cx="144.8" cy="465.1" r="3.1" fill="#D8AE6B" opacity="0.58" /><circle cx="713.1" cy="199.9" r="2.8" fill="#D8AE6B" opacity="0.26" /><circle cx="269.5" cy="608.0" r="2.7" fill="#D8AE6B" opacity="0.58" /><circle cx="637.3" cy="838.8" r="3.1" fill="#D8AE6B" opacity="0.50" /><circle cx="594.1" cy="832.6" r="2.1" fill="#D8AE6B" opacity="0.62" /><circle cx="154.1" cy="926.3" r="3.8" fill="#D8AE6B" opacity="0.62" /><circle cx="303.1" cy="1042.8" r="2.5" fill="#D8AE6B" opacity="0.47" /><circle cx="226.4" cy="710.6" r="4.1" fill="#D8AE6B" opacity="0.35" /><circle cx="635.3" cy="252.2" r="4.1" fill="#D8AE6B" opacity="0.53" /><circle cx="195.3" cy="256.5" r="2.7" fill="#D8AE6B" opacity="0.47" /><circle cx="252.7" cy="526.7" r="3.1" fill="#D8AE6B" opacity="0.25" /><circle cx="114.7" cy="531.1" r="2.0" fill="#D8AE6B" opacity="0.53" /><circle cx="325.9" cy="787.4" r="1.8" fill="#D8AE6B" opacity="0.70" /><circle cx="668.2" cy="522.9" r="3.7" fill="#D8AE6B" opacity="0.50" /><circle cx="504.3" cy="878.7" r="4.5" fill="#D8AE6B" opacity="0.36" /><circle cx="200.2" cy="992.6" r="4.6" fill="#D8AE6B" opacity="0.61" /><circle cx="314.1" cy="276.1" r="4.9" fill="#D8AE6B" opacity="0.41" /></g>
  <rect width="900" height="1200" fill="url(#viga2jnevq)" />

  <rect x="30" y="30" width="840" height="1140" fill="none" stroke="#D8AE6B" stroke-opacity="0.38" stroke-width="1.5" />
</svg>
