<svg xmlns="http://www.w3.org/2000/svg" viewBox="0 0 900 1200" width="900" height="1200" preserveAspectRatio="xMidYMid slice" role="img">
  <defs>
    <linearGradient id="bgawpwcux" x1="0" y1="0" x2="0.9" y2="1">
      <stop offset="0" stop-color="#1A1210" />
      <stop offset="0.52" stop-color="#4C3122" />
      <stop offset="1" stop-color="#806043" />
    </linearGradient>
    <radialGradient id="glowawpwcux" cx="0.72" cy="0.22" r="0.78">
      <stop offset="0" stop-color="#EDD6A0" stop-opacity="0.46" />
      <stop offset="0.45" stop-color="#EDD6A0" stop-opacity="0.14" />
      <stop offset="1" stop-color="#EDD6A0" stop-opacity="0" />
    </radialGradient>
    <radialGradient id="deepawpwcux" cx="0.18" cy="0.94" r="0.72">
      <stop offset="0" stop-color="#120C0A" stop-opacity="0.78" />
      <stop offset="1" stop-color="#120C0A" stop-opacity="0" />
    </radialGradient>
    <linearGradient id="strandawpwcux" x1="0" y1="0" x2="1" y2="1">
      <stop offset="0" stop-color="#EDD6A0" stop-opacity="0.55" />
      <stop offset="0.5" stop-color="#FFFFFF" stop-opacity="0.2" />
      <stop offset="1" stop-color="#EDD6A0" stop-opacity="0.32" />
    </linearGradient>
    <radialGradient id="vigawpwcux" cx="0.5" cy="0.46" r="0.78">
      <stop offset="0.5" stop-color="#000000" stop-opacity="0" />
      <stop offset="1" stop-color="#000000" stop-opacity="0.45" />
    </radialGradient>
    <filter id="softawpwcux" x="-20%" y="-20%" width="140%" height="140%">
      <feGaussianBlur stdDeviation="12" />
    </filter>
  </defs>

  <rect width="900" height="1200" fill="url(#bgawpwcux)" />
  <rect width="900" height="1200" fill="url(#glowawpwcux)" />

  <g fill="none" stroke="url(#strandawpwcux)" stroke-linecap="round" filter="url(#softawpwcux)">
    <path d="M697.5 -60.0 C787.8 408.0 547.0 816.0 772.7 1176.0 727.6 1272.0" stroke-width="29.3" opacity="0.20" /><path d="M537.6 -60.0 C510.8 408.0 582.4 816.0 515.2 1176.0 528.7 1272.0" stroke-width="55.0" opacity="0.30" /><path d="M360.2 -60.0 C255.5 408.0 534.9 816.0 272.9 1176.0 325.3 1272.0" stroke-width="54.2" opacity="0.36" /><path d="M597.2 -60.0 C465.9 408.0 816.1 816.0 487.8 1176.0 553.4 1272.0" stroke-width="34.9" opacity="0.32" /><path d="M389.4 -60.0 C463.2 408.0 266.4 816.0 450.9 1176.0 414.0 1272.0" stroke-width="45.9" opacity="0.21" /><path d="M659.2 -60.0 C647.5 408.0 678.8 816.0 649.4 1176.0 655.3 1272.0" stroke-width="43.2" opacity="0.44" /><path d="M93.4 -60.0 C71.7 408.0 129.6 816.0 75.3 1176.0 86.2 1272.0" stroke-width="43.5" opacity="0.25" />
  </g>

  <g fill="none" stroke="#EDD6A0" stroke-opacity="0.34" stroke-width="1.4">
    <circle cx="450.0" cy="480.0" r="178.6" />
    <circle cx="450.0" cy="480.0" r="288.0" stroke-opacity="0.2" />
    <path d="M69.8 480.0 A380.2 380.2 0 0 1 830.2 480.0" stroke-opacity="0.16" />
  </g>

  <rect width="900" height="1200" fill="url(#deepawpwcux)" />
  <g><circle cx="249.3" cy="508.9" r="4.0" fill="#EDD6A0" opacity="0.37" /><circle cx="242.2" cy="619.2" r="1.7" fill="#EDD6A0" opacity="0.31" /><circle cx="417.4" cy="651.8" r="1.6" fill="#EDD6A0" opacity="0.57" /><circle cx="205.6" cy="678.7" r="1.7" fill="#EDD6A0" opacity="0.27" /><circle cx="111.1" cy="666.7" r="2.5" fill="#EDD6A0" opacity="0.63" /><circle cx="253.6" cy="722.4" r="1.9" fill="#EDD6A0" opacity="0.49" /><circle cx="506.2" cy="784.8" r="1.9" fill="#EDD6A0" opacity="0.57" /><circle cx="489.3" cy="1062.8" r="2.5" fill="#EDD6A0" opacity="0.72" /><circle cx="304.0" cy="566.9" r="3.5" fill="#EDD6A0" opacity="0.33" /><circle cx="195.9" cy="623.9" r="4.7" fill="#EDD6A0" opacity="0.35" /><circle cx="191.7" cy="1051.2" r="2.8" fill="#EDD6A0" opacity="0.62" /><circle cx="785.1" cy="836.1" r="2.9" fill="#EDD6A0" opacity="0.58" /><circle cx="550.8" cy="411.6" r="4.1" fill="#EDD6A0" opacity="0.47" /><circle cx="165.1" cy="775.6" r="4.6" fill="#EDD6A0" opacity="0.73" /><circle cx="716.1" cy="1055.1" r="2.2" fill="#EDD6A0" opacity="0.52" /><circle cx="250.0" cy="546.0" r="3.2" fill="#EDD6A0" opacity="0.33" /><circle cx="667.9" cy="916.8" r="4.6" fill="#EDD6A0" opacity="0.29" /><circle cx="623.4" cy="674.4" r="2.8" fill="#EDD6A0" opacity="0.43" /><circle cx="541.3" cy="932.4" r="2.5" fill="#EDD6A0" opacity="0.70" /><circle cx="662.7" cy="862.7" r="1.8" fill="#EDD6A0" opacity="0.43" /><circle cx="521.1" cy="227.0" r="4.6" fill="#EDD6A0" opacity="0.30" /><circle cx="384.9" cy="485.7" r="4.8" fill="#EDD6A0" opacity="0.37" /><circle cx="616.0" cy="425.7" r="3.7" fill="#EDD6A0" opacity="0.26" /><circle cx="494.3" cy="843.4" r="3.6" fill="#EDD6A0" opacity="0.52" /><circle cx="208.7" cy="625.1" r="3.5" fill="#EDD6A0" opacity="0.73" /><circle cx="707.9" cy="148.1" r="4.9" fill="#EDD6A0" opacity="0.54" /></g>
  <rect width="900" height="1200" fill="url(#vigawpwcux)" />

  <rect x="30" y="30" width="840" height="1140" fill="none" stroke="#EDD6A0" stroke-opacity="0.38" stroke-width="1.5" />
</svg>
