<svg xmlns="http://www.w3.org/2000/svg" viewBox="0 0 900 1200" width="900" height="1200" preserveAspectRatio="xMidYMid slice" role="img">
  <defs>
    <linearGradient id="bgaha6cj5" x1="0" y1="0" x2="0.9" y2="1">
      <stop offset="0" stop-color="#150F1B" />
      <stop offset="0.52" stop-color="#3A2246" />
      <stop offset="1" stop-color="#5E3A63" />
    </linearGradient>
    <radialGradient id="glowaha6cj5" cx="0.72" cy="0.22" r="0.78">
      <stop offset="0" stop-color="#E3C77C" stop-opacity="0.46" />
      <stop offset="0.45" stop-color="#E3C77C" stop-opacity="0.14" />
      <stop offset="1" stop-color="#E3C77C" stop-opacity="0" />
    </radialGradient>
    <radialGradient id="deepaha6cj5" cx="0.18" cy="0.94" r="0.72">
      <stop offset="0" stop-color="#100A14" stop-opacity="0.78" />
      <stop offset="1" stop-color="#100A14" stop-opacity="0" />
    </radialGradient>
    <linearGradient id="strandaha6cj5" x1="0" y1="0" x2="1" y2="1">
      <stop offset="0" stop-color="#E3C77C" stop-opacity="0.55" />
      <stop offset="0.5" stop-color="#FFFFFF" stop-opacity="0.2" />
      <stop offset="1" stop-color="#E3C77C" stop-opacity="0.32" />
    </linearGradient>
    <radialGradient id="vigaha6cj5" cx="0.5" cy="0.46" r="0.78">
      <stop offset="0.5" stop-color="#000000" stop-opacity="0" />
      <stop offset="1" stop-color="#000000" stop-opacity="0.45" />
    </radialGradient>
    <filter id="softaha6cj5" x="-20%" y="-20%" width="140%" height="140%">
      <feGaussianBlur stdDeviation="12" />
    </filter>
  </defs>

  <rect width="900" height="1200" fill="url(#bgaha6cj5)" />
  <rect width="900" height="1200" fill="url(#glowaha6cj5)" />

  <g fill="none" stroke="url(#strandaha6cj5)" stroke-linecap="round" filter="url(#softaha6cj5)">
    <path d="M594.8 -60.0 C467.3 408.0 807.2 816.0 488.6 1176.0 552.3 1272.0" stroke-width="40.6" opacity="0.50" /><path d="M388.9 -60.0 C269.2 408.0 588.4 816.0 289.1 1176.0 349.0 1272.0" stroke-width="22.3" opacity="0.25" /><path d="M545.8 -60.0 C559.6 408.0 522.7 816.0 557.3 1176.0 550.4 1272.0" stroke-width="45.5" opacity="0.49" /><path d="M439.3 -60.0 C466.7 408.0 393.8 816.0 462.1 1176.0 448.5 1272.0" stroke-width="16.7" opacity="0.26" /><path d="M607.5 -60.0 C740.5 408.0 385.9 816.0 718.4 1176.0 651.9 1272.0" stroke-width="25.4" opacity="0.39" /><path d="M769.7 -60.0 C770.0 408.0 769.2 816.0 769.9 1176.0 769.8 1272.0" stroke-width="21.4" opacity="0.39" /><path d="M682.5 -60.0 C743.6 408.0 580.6 816.0 733.4 1176.0 702.8 1272.0" stroke-width="37.1" opacity="0.33" />
  </g>

  <g fill="none" stroke="#E3C77C" stroke-opacity="0.34" stroke-width="1.4">
    <circle cx="450.0" cy="480.0" r="178.6" />
    <circle cx="450.0" cy="480.0" r="288.0" stroke-opacity="0.2" />
    <path d="M69.8 480.0 A380.2 380.2 0 0 1 830.2 480.0" stroke-opacity="0.16" />
  </g>

  <rect width="900" height="1200" fill="url(#deepaha6cj5)" />
  <g><circle cx="629.3" cy="223.4" r="4.4" fill="#E3C77C" opacity="0.55" /><circle cx="400.1" cy="435.8" r="4.8" fill="#E3C77C" opacity="0.39" /><circle cx="406.4" cy="757.8" r="3.5" fill="#E3C77C" opacity="0.68" /><circle cx="374.3" cy="809.3" r="4.3" fill="#E3C77C" opacity="0.48" /><circle cx="643.5" cy="353.1" r="1.6" fill="#E3C77C" opacity="0.48" /><circle cx="148.8" cy="578.5" r="3.2" fill="#E3C77C" opacity="0.27" /><circle cx="509.9" cy="1081.5" r="1.9" fill="#E3C77C" opacity="0.67" /><circle cx="181.5" cy="1037.5" r="4.6" fill="#E3C77C" opacity="0.65" /><circle cx="261.7" cy="987.9" r="4.4" fill="#E3C77C" opacity="0.27" /><circle cx="504.6" cy="1032.5" r="1.8" fill="#E3C77C" opacity="0.48" /><circle cx="118.1" cy="695.4" r="4.4" fill="#E3C77C" opacity="0.49" /><circle cx="690.5" cy="513.1" r="3.0" fill="#E3C77C" opacity="0.48" /><circle cx="786.3" cy="988.4" r="2.5" fill="#E3C77C" opacity="0.37" /><circle cx="116.1" cy="1061.8" r="4.3" fill="#E3C77C" opacity="0.74" /><circle cx="476.8" cy="151.7" r="3.3" fill="#E3C77C" opacity="0.27" /><circle cx="211.9" cy="434.7" r="5.0" fill="#E3C77C" opacity="0.62" /><circle cx="749.9" cy="461.9" r="2.1" fill="#E3C77C" opacity="0.41" /><circle cx="226.2" cy="867.5" r="3.3" fill="#E3C77C" opacity="0.57" /><circle cx="387.7" cy="723.1" r="2.7" fill="#E3C77C" opacity="0.67" /><circle cx="698.8" cy="630.5" r="3.7" fill="#E3C77C" opacity="0.31" /><circle cx="434.6" cy="662.7" r="3.7" fill="#E3C77C" opacity="0.43" /><circle cx="656.1" cy="716.5" r="3.2" fill="#E3C77C" opacity="0.64" /><circle cx="571.2" cy="884.3" r="3.2" fill="#E3C77C" opacity="0.67" /><circle cx="501.5" cy="861.6" r="4.9" fill="#E3C77C" opacity="0.47" /><circle cx="540.7" cy="104.8" r="3.9" fill="#E3C77C" opacity="0.45" /><circle cx="424.0" cy="427.7" r="3.7" fill="#E3C77C" opacity="0.43" /></g>
  <rect width="900" height="1200" fill="url(#vigaha6cj5)" />

  <rect x="30" y="30" width="840" height="1140" fill="none" stroke="#E3C77C" stroke-opacity="0.38" stroke-width="1.5" />
</svg>
